<?xml version="1.0" standalone="no"?>
<!DOCTYPE svg PUBLIC "-//W3C//DTD SVG 20010904//EN"
 "http://www.w3.org/TR/2001/REC-SVG-20010904/DTD/svg10.dtd">
<svg version="1.0" xmlns="http://www.w3.org/2000/svg"
 width="256.000000pt" height="256.000000pt" viewBox="0 0 256.000000 256.000000"
 preserveAspectRatio="xMidYMid meet">

<g transform="translate(0.000000,256.000000) scale(0.100000,-0.100000)"
fill="#000000" stroke="none">
<path d="M440 1366 l0 -816 205 0 205 0 0 284 0 283 218 6 c245 6 318 19 429
72 177 83 273 245 273 460 0 205 -99 368 -272 450 -133 63 -167 67 -635 72
l-423 5 0 -816z m751 503 c93 -28 149 -110 149 -219 0 -80 -23 -135 -74 -177
-55 -45 -97 -53 -265 -53 l-151 0 0 230 0 230 151 0 c85 0 169 -5 190 -11z"/>
<path d="M2137 1073 c-16 -15 -4 -32 33 -47 54 -22 67 -67 51 -188 -12 -96
-25 -133 -50 -145 -9 -4 -133 -9 -277 -11 -251 -3 -262 -3 -296 18 -20 11 -49
38 -64 58 -16 20 -36 43 -46 50 -10 7 -25 30 -33 49 -15 34 -16 35 -29 17 -8
-10 -17 -16 -21 -12 -4 3 -15 -1 -25 -10 -10 -9 -39 -33 -64 -52 -25 -19 -46
-42 -46 -50 0 -29 29 -58 65 -64 32 -6 39 -13 61 -64 14 -31 31 -80 39 -108 7
-28 23 -71 34 -94 24 -50 26 -84 9 -194 -11 -73 -14 -80 -45 -98 -40 -24 -42
-35 -7 -44 38 -10 75 35 124 148 46 105 56 120 66 92 21 -63 70 -157 86 -165
10 -5 18 -21 18 -34 0 -29 16 -41 35 -25 22 19 18 42 -15 86 -27 35 -29 46
-30 117 l0 77 109 0 108 0 12 -53 c25 -106 25 -126 0 -153 -13 -13 -37 -28
-53 -32 -42 -11 -40 -36 2 -40 25 -3 44 5 82 33 60 44 80 71 80 107 0 23 6 41
36 106 0 1 18 -15 40 -35 22 -21 61 -49 87 -63 41 -22 47 -29 47 -56 0 -17 -9
-43 -20 -57 -28 -35 -25 -47 9 -47 42 0 57 20 70 93 11 63 10 66 -24 140 -31
66 -35 86 -35 154 0 54 -5 85 -15 99 -21 28 -18 62 10 140 21 55 26 88 26 160
1 118 -15 158 -73 184 -46 21 -61 24 -71 13z"/>
</g>
</svg>
